<?xml version="1.0" standalone="no"?> <!DOCTYPE svg PUBLIC "-//W3C//DTD SVG 1.0//EN" "http://www.w3.org/TR/2001/REC-SVG-20010904/DTD/svg10.dtd" > <svg xmlns="http://www.w3.org/2000/svg" width="100%" height="100%">
<defs >
<font id="respublikafyblack" horiz-adv-x="576" ><font-face
    font-family="RespublikaFY-Black"
    units-per-em="1000"
    panose-1="2 0 10 6 3 0 0 2 0 4"
    ascent="900"
    descent="-300"
    alphabetic="0" />
<missing-glyph horiz-adv-x="602" d="M305 435Q321 464 346 482T403 500Q446 500 474 471T502 395Q502 365 489 330T450 260T387 193T301 135Q253 160 216 192T153 260T114 330T100 395Q100 441 128 470T199 500Q230 500 255 482T297 435H305Z" />
<glyph unicode=" " glyph-name="space" horiz-adv-x="250" />
<glyph unicode="!" glyph-name="exclam" horiz-adv-x="290" d="M142 -10Q93 -10 68 18T42 89Q42 132 71 163T150 194Q199 194 224 166T250 95Q250 52 221 21T142 -10ZM65 240L40 659V682Q88 691 139 691Q196 691 250 682V659L225 240H65Z" />
<glyph unicode="&quot;" glyph-name="quotedbl" horiz-adv-x="452" d="M267 392L250 629V682Q267 687 287 689T329 691Q373 691 412 682V628L395 392H267ZM57 392L40 629V682Q57 687 77 689T119 691Q163 691 202 682V628L185 392H57Z" />
<glyph unicode="#" glyph-name="numbersign" horiz-adv-x="719" d="M112 0L126 105H30L50 247H146L158 333H62L82 474H178L192 575H356L342 474H427L441 575H605L591 474H689L669 333H571L559 247H657L637 105H539L524 0H360L375 105H290L276 0H112ZM310 247H395L407
333H322L310 247Z" />
<glyph unicode="$" glyph-name="dollar" horiz-adv-x="523" d="M205 -7Q160 -3 115 7T38 29L73 184Q118 168 162 159T255 149Q282 149 299 161T316 196Q316 205 314 213T302 228T274 244T225 263L198 272Q152 287 121 305T70 347T42 402T33 475Q33 547 75 603T205
681V782Q215 785 232 787T266 789Q283 789 300 787T327 782V691Q367 689 409 680T487 657L444 504Q434 508 418 513T380 522T336 530T287 533Q262 533 245 531T216 524Q213 509 213 498Q213 476 228 461T287 432L314 423Q409 391 452 344T496 220Q496 126 453 70T327
-3V-99Q317 -102 300 -104T266 -106Q249 -106 232 -104T205 -99V-7Z" />
<glyph unicode="%" glyph-name="percent" horiz-adv-x="1182" d="M190 385Q200 360 235 360Q270 360 279 385T289 468Q289 526 280 551T235 577Q200 577 190 552T180 468Q180 411 190 385ZM150 255Q112 268 86 295T45 365T30 468Q30 528 45 570T87 640T151 680T235
693Q282 693 320 681T384 641T425 571T439 468Q439 409 425 367T383 297T319 256T235 243Q188 243 150 255ZM884 135Q894 110 929 110Q964 110 973 135T983 218Q983 276 974 301T929 327Q894 327 884 302T874 218Q874 161 884 135ZM844 5Q806 18 780 45T739 115T724
218Q724 278 739 320T781 390T845 430T929 443Q976 443 1014 431T1078 391T1119 321T1133 218Q1133 159 1119 117T1077 47T1013 6T929 -7Q882 -7 844 5ZM492 0Q453 -12 413 -12Q390 -12 367 -9T322 0L669 682Q691 687 714 689T760 692Q783 692 803 690T838 682L492
0Z" />
<glyph unicode="&amp;" glyph-name="ampersand" horiz-adv-x="712" d="M488 42Q441 15 390 3T288 -10Q161 -10 96 42T30 179Q30 209 37 234T61 282T102 327T164 374Q146 393 134 410T114 443T103 477T100 515Q100 553 115 585T158 641T225 678T314 691Q367 691
407 679T474 644T515 593T529 530Q529 509 524 488T504 446T464 403T398 357L492 259Q503 285 509 315T517 379Q548 388 584 388Q605 388 626 386T669 378Q665 306 647 249T599 148L722 21Q700 5 668 0T605 -6Q572 -6 551 -3Q539 -2 529 0L488 42ZM260 276Q244
265 234 256T218 237T210 219T207 199Q207 172 229 154T303 136Q346 136 383 150L260 276ZM331 471Q354 485 362 498T372 524Q373 542 358 555T317 569Q290 569 277 555T263 521Q263 504 271 491T304 454L331 471Z" />
<glyph unicode="&apos;" glyph-name="quotesingle" horiz-adv-x="242" d="M57 392L40 629V682Q57 687 77 689T119 691Q163 691 202 682V628L185 392H57Z" />
<glyph unicode="(" glyph-name="parenleft" horiz-adv-x="420" d="M430 -260Q329 -244 256 -192T134 -64T63 107T40 304Q40 406 63 500T134 671T255 799T430 868V727Q375 709 335 671T268 578T229 458T216 318V290Q216 216 229 150T268 31T334 -62T430 -119V-260Z" />
<glyph unicode=")" glyph-name="parenright" horiz-adv-x="420" d="M-10 -119Q45 -101 85 -62T152 30T191 150T204 290V318Q204 391 191 457T152 578T86 670T-10 727V868Q91 851 164 800T286 672T357 501T380 304Q380 202 357 107T286 -64T165 -192T-10 -260V-119Z" />
<glyph unicode="*" glyph-name="asterisk" horiz-adv-x="492" d="M175 358Q155 364 135 376T99 402Q81 417 63 434L151 541L20 568Q20 594 26 618T40 663Q49 686 60 706L184 652L173 789Q188 794 204 796T238 798Q255 798 269 797T295 793Q308 791 320 789L310
652L435 706Q448 693 455 671T466 625Q470 599 472 569L340 539L429 434Q419 415 401 402T363 379Q341 368 316 360L247 479L175 358Z" />
<glyph unicode="+" glyph-name="plus" horiz-adv-x="528" d="M30 243V392H180V538H349V392H498V243H349V96H180V243H30Z" />
<glyph unicode="," glyph-name="comma" horiz-adv-x="270" d="M5 -129L78 0Q55 14 44 34T32 83Q32 125 59 152T131 180Q159 180 180 171T214 147T233 113T240 75Q240 31 214 -11T141 -109L80 -180L5 -129Z" />
<glyph unicode="-" glyph-name="hyphen" horiz-adv-x="350" d="M25 245V389H325V245H25Z" />
<glyph unicode="." glyph-name="period" horiz-adv-x="268" d="M130 -10Q81 -10 56 18T30 89Q30 132 59 163T138 194Q187 194 212 166T238 95Q238 52 209 21T130 -10Z" />
<glyph unicode="/" glyph-name="slash" horiz-adv-x="443" d="M120 -139Q81 -151 41 -151Q18 -151 -5 -148T-50 -139L310 787Q332 792 355 794T402 797Q425 797 444 795T479 787L120 -139Z" />
<glyph unicode="0" glyph-name="zero" horiz-adv-x="618" d="M236 196Q246 173 263 162T309 150Q337 150 354 161T382 196T395 255T399 341Q399 390 396 426T382 486T355 520T309 532Q281 532 264 521T236 486T223 427T219 341Q219 291 222 255T236 196ZM192 10Q141
30 105 73T50 182T30 341Q30 432 50 498T106 608T194 671T309 692Q374 692 425 672T513 609T568 500T588 341Q588 249 568 183T512 74T424 11T309 -10Q244 -10 192 10Z" />
<glyph unicode="1" glyph-name="one" horiz-adv-x="451" d="M50 0V162H162V489L40 464V629L339 692V162H426V0H50Z" />
<glyph unicode="2" glyph-name="two" horiz-adv-x="519" d="M63 0Q59 15 55 33Q52 48 50 68T47 113Q47 121 47 128T48 144L195 309Q242 361 271 399T300 471Q300 500 282 516T225 533Q190 533 157 519T86 476L15 609Q58 647 113 669T241 692Q305 692 351 677T426
634T469 571T483 492Q483 456 471 423T439 357T392 294T336 231L269 158L489 164V0H63Z" />
<glyph unicode="3" glyph-name="three" horiz-adv-x="520" d="M80 184Q109 164 144 155T212 146Q260 146 283 162T306 208Q306 248 280 261T210 274H122V419H212Q251 419 273 435T295 482Q295 505 276 520T217 536Q187 536 153 525T86 493L15 623Q59 652 113 672T240
692Q301 692 344 677T416 635T458 576T472 505Q472 457 451 417T389 354Q434 334 457 295T480 208Q480 166 466 127T422 58T344 9T228 -10Q167 -10 111 4T18 46L80 184Z" />
<glyph unicode="4" glyph-name="four" horiz-adv-x="606" d="M45 104Q37 123 31 147Q26 167 23 193T22 248L311 682Q325 686 356 688T420 690Q449 690 473 689T506 682V262Q527 262 548 262T591 263V104H506V0Q496 -5 468 -7T410 -9Q382 -9 359 -7T329 0V104H45ZM209
260Q239 260 269 260T329 261V456L209 260Z" />
<glyph unicode="5" glyph-name="five" horiz-adv-x="508" d="M75 186Q146 149 213 149Q305 149 305 224Q305 255 282 270T220 286H60V682H448V520H226V438H244Q293 438 336 428T410 393T460 331T479 239Q479 191 465 147T421 67T344 11T229 -10Q168 -10 113 4T20
46L75 186Z" />
<glyph unicode="6" glyph-name="six" horiz-adv-x="572" d="M446 495Q423 514 398 523T341 532Q316 532 294 526T255 503T225 460T209 390Q233 415 268 429T350 443Q392 443 428 430T491 391T532 325T547 234Q547 177 530 132T479 55T400 7T297 -10Q166 -10 98
70T30 312Q30 413 53 485T116 603T212 670T331 692Q368 692 398 687T452 673T497 650T536 621L446 495ZM262 287Q242 280 230 269Q229 261 229 253T228 237Q228 199 244 175T297 150Q319 150 332 156T353 173T364 197T367 224Q367 252 353 273T302 294Q282 294
262 287Z" />
<glyph unicode="7" glyph-name="seven" horiz-adv-x="498" d="M240 0Q229 -3 207 -4T158 -6Q127 -6 96 -4T45 6L284 524Q220 524 157 524T30 523V681H453Q461 660 467 637Q472 617 475 592T476 537L240 0Z" />
<glyph unicode="8" glyph-name="eight" horiz-adv-x="582" d="M95 308Q120 328 157 342Q136 354 118 369T86 405T64 451T56 509Q56 590 115 641T300 692Q416 692 475 642T534 509Q534 492 530 472T516 433T486 395T438 363Q461 351 482 336T518 299T543 249T552
185Q552 95 490 43T292 -10Q167 -10 99 38T30 177Q30 196 36 219T56 265T95 308ZM308 270Q290 280 269 289Q229 266 218 242T206 193Q206 158 227 137T285 116Q330 116 350 138T370 193Q370 211 362 224T341 249T308 270ZM257 449Q281 429 316 413Q336 427 351
449T367 503Q367 529 352 550T300 572Q266 572 250 552T233 505Q233 470 257 449Z" />
<glyph unicode="9" glyph-name="nine" horiz-adv-x="572" d="M126 187Q149 168 174 159T231 150Q256 150 278 156T317 179T346 222T363 292Q339 267 304 253T222 239Q180 239 144 252T81 291T40 357T25 448Q25 505 42 550T93 627T172 675T275 692Q406 692 474
612T542 370Q542 269 519 197T456 79T360 12T241 -10Q167 -10 120 9T36 61L126 187ZM310 395Q330 402 342 413Q343 421 343 429T344 445Q344 483 328 507T275 532Q253 532 240 526T219 509T208 485T205 458Q205 430 219 409T270 388Q290 388 310 395Z" />
<glyph unicode=":" glyph-name="colon" horiz-adv-x="288" d="M140 300Q91 300 66 328T40 399Q40 442 69 473T148 504Q197 504 222 476T248 405Q248 362 219 331T140 300ZM140 -10Q91 -10 66 18T40 89Q40 132 69 163T148 194Q197 194 222 166T248 95Q248 52 219
21T140 -10Z" />
<glyph unicode=";" glyph-name="semicolon" horiz-adv-x="290" d="M15 -129L88 0Q65 14 54 34T42 83Q42 125 69 152T141 180Q169 180 190 171T224 147T243 113T250 75Q250 31 224 -11T151 -109L90 -180L15 -129ZM135 300Q86 300 61 328T35 399Q35 442 64 473T143
504Q192 504 217 476T243 405Q243 362 214 331T135 300Z" />
<glyph unicode="&lt;" glyph-name="less" horiz-adv-x="427" d="M30 239V395L397 599V409L210 317L397 226V36L30 239Z" />
<glyph unicode="=" glyph-name="equal" horiz-adv-x="528" d="M30 348V497H498V348H30ZM30 139V288H498V139H30Z" />
<glyph unicode="&gt;" glyph-name="greater" horiz-adv-x="427" d="M30 35V225L217 317L30 408V598L397 395V239L30 35Z" />
<glyph unicode="?" glyph-name="question" horiz-adv-x="501" d="M223 -10Q174 -10 149 18T123 89Q123 132 152 163T231 194Q280 194 305 166T331 95Q331 52 302 21T223 -10ZM139 237V251Q139 296 151 326T181 377T219 412T258 438T288 464T300 497Q300 517 284
529T218 541Q171 541 134 525T74 491L0 618Q42 648 100 670T236 692Q352 692 416 643T481 506Q481 460 469 431T437 383T396 351T355 325T324 295T311 251V237H139Z" />
<glyph unicode="@" glyph-name="at" horiz-adv-x="858" d="M617 -85Q575 -111 525 -124T414 -138Q328 -138 259 -115T142 -44T67 77T40 249Q40 337 69 414T153 548T285 639T457 672Q532 672 598 651T713 586T790 477T818 325Q818 202 767 142T621 81Q582 81 550
97T498 142Q481 110 456 96T397 81Q331 81 295 124T259 247Q259 293 273 333T310 402T363 449T425 466Q486 466 508 414L515 447Q526 450 535 451T554 452Q571 452 584 449T608 441Q619 437 629 431L594 270Q591 256 591 245Q591 230 597 220T620 210Q646 210 660
239T674 324Q674 429 616 482T455 535Q396 535 348 514T266 456T213 366T194 250Q194 187 210 141T256 65T327 20T419 5Q459 5 493 13T553 37L617 -85ZM391 265Q387 233 396 219T424 205Q454 205 461 241L479 332Q475 340 467 346T445 352Q421 352 409 331T392
275L391 265Z" />
<glyph unicode="A" glyph-name="A" horiz-adv-x="640" d="M188 1Q177 -4 152 -7T98 -10Q66 -10 38 -6T5 9L217 680Q222 683 233 685T260 688T292 691T328 692Q362 692 389 689T425 680L635 9Q632 4 623 1T601 -5T570 -9T536 -10Q506 -10 480 -7T442 1L410 122H219L188
1ZM255 274H375L355 348Q348 373 341 401T329 455Q323 484 317 512H313Q307 483 301 455Q296 430 289 402T275 348L255 274Z" />
<glyph unicode="B" glyph-name="B" horiz-adv-x="597" d="M70 0V682H297Q557 682 557 497Q557 449 539 411T483 352Q528 332 552 294T577 208Q577 158 559 120T508 55T429 14T325 0H70ZM243 150H298Q328 150 346 155T376 169T391 192T395 222Q395 248 377 263T307
279H243V150ZM243 414H278Q308 414 327 418T356 431T371 451T375 478Q375 506 358 519T287 533H243V414Z" />
<glyph unicode="C" glyph-name="C" horiz-adv-x="520" d="M508 43Q483 26 462 16T420 0T377 -8T325 -10Q258 -10 204 10T111 73T51 182T30 341Q30 432 51 498T110 608T198 671T308 692Q379 692 428 673T512 621L422 495Q402 514 379 523T327 532Q267 532 243 487T219
341Q219 242 245 196T339 150Q368 150 391 157T440 183L508 43Z" />
<glyph unicode="D" glyph-name="D" horiz-adv-x="628" d="M70 0V682H294Q363 682 419 663T514 603T576 499T598 348Q598 259 575 194T511 85T412 21T284 0H70ZM247 157H277Q316 157 341 169T382 204T403 264T409 348Q409 394 404 427T384 482T347 514T286 525H247V157Z" />
<glyph unicode="E" glyph-name="E" horiz-adv-x="539" d="M70 0V682H480V520H247V423H467V261H247V162H491V0H70Z" />
<glyph unicode="F" glyph-name="F" horiz-adv-x="505" d="M247 0Q237 -5 209 -7T151 -9Q123 -9 100 -7T70 0V682H470V520H247V403H455V241H247V0Z" />
<glyph unicode="G" glyph-name="G" horiz-adv-x="604" d="M314 245V392H549V33Q504 13 456 2T345 -10Q274 -10 216 10T116 73T53 182T30 341Q30 432 53 498T116 608T213 671T334 692Q401 692 452 674T538 631L454 497Q411 532 350 532Q278 532 249 486T219 341Q219
242 250 196T359 150Q364 150 370 150T382 151V245H314Z" />
<glyph unicode="H" glyph-name="H" horiz-adv-x="687" d="M247 0Q237 -5 209 -7T151 -9Q123 -9 100 -7T70 0V682Q80 687 108 689T166 691Q194 691 217 689T247 682V434H440V682Q450 687 478 689T536 691Q564 691 587 689T617 682V0Q607 -5 579 -7T521 -9Q493 -9
470 -7T440 0V272H247V0Z" />
<glyph unicode="I" glyph-name="I" horiz-adv-x="421" d="M40 0V162H122V520H40V682H381V520H299V162H381V0H40Z" />
<glyph unicode="J" glyph-name="J" horiz-adv-x="447" d="M48 160Q62 155 85 150T142 144Q176 144 193 156T210 199V520H50V682H387V175Q387 134 376 100T338 42T269 4T164 -10Q115 -10 74 -2T10 15L48 160Z" />
<glyph unicode="K" glyph-name="K" horiz-adv-x="619" d="M247 0Q237 -5 209 -7T151 -9Q123 -9 100 -7T70 0V682Q80 687 108 689T166 691Q194 691 217 689T247 682V438L416 682Q433 687 458 689T509 691Q528 691 546 690T578 687T601 680T610 671L406 404L612
9Q604 -1 573 -5T505 -9Q476 -9 451 -7T414 1L283 270L247 226V0Z" />
<glyph unicode="L" glyph-name="L" horiz-adv-x="499" d="M70 0V682Q80 687 108 689T166 691Q194 691 217 689T247 682V162H469V0H70Z" />
<glyph unicode="M" glyph-name="M" horiz-adv-x="755" d="M241 0Q231 -5 204 -7T148 -9Q121 -9 99 -7T70 0V682Q84 687 109 689T162 691Q191 691 218 689T263 682L333 494Q341 473 349 449T363 403Q370 378 377 355H381Q388 378 395 403Q401 423 409 447T425 494L495
682Q508 687 535 689T592 691Q621 691 646 689T685 682V0Q675 -5 648 -7T592 -9Q565 -9 543 -7T514 0V175L516 351H510Q502 328 494 303Q487 282 479 258T461 212L443 169Q433 164 413 161T372 158Q352 158 335 160T311 169L294 212Q285 234 277 258T261 303L245
351H239L241 180V0Z" />
<glyph unicode="N" glyph-name="N" horiz-adv-x="658" d="M237 0Q227 -5 201 -7T146 -9Q120 -9 99 -7T70 0V682Q84 688 108 691T159 694Q188 694 214 691T258 682L360 451Q369 430 379 404T398 355Q408 329 417 302H423L421 480V683Q428 688 449 690T497 692Q526
692 552 690T588 683V1Q577 -5 556 -8T509 -11Q479 -11 450 -8T407 1L299 232Q289 253 279 278T260 327Q250 353 241 381H235L237 207V0Z" />
<glyph unicode="O" glyph-name="O" horiz-adv-x="664" d="M241 196Q254 173 276 162T332 150Q366 150 387 161T422 196T440 255T445 341Q445 390 440 426T422 486T388 520T332 532Q298 532 276 521T242 486T224 427T219 341Q219 291 224 255T241 196ZM207 10Q151
30 112 73T51 182T30 341Q30 432 52 498T113 608T208 671T332 692Q401 692 457 672T552 609T613 500T634 341Q634 249 612 183T551 74T455 11T332 -10Q263 -10 207 10Z" />
<glyph unicode="P" glyph-name="P" horiz-adv-x="608" d="M247 0Q237 -5 209 -7T151 -9Q123 -9 100 -7T70 0V682H297Q362 682 414 668T502 624T558 549T578 442Q578 379 557 332T496 252T403 204T281 188H247V0ZM247 344H274Q310 344 332 350T367 369T384 400T389
442Q389 463 385 479T368 506T336 523T283 529H247V344Z" />
<glyph unicode="Q" glyph-name="Q" horiz-adv-x="664" d="M434 3Q410 -3 385 -6T332 -10Q263 -10 207 10T112 73T51 182T30 341Q30 432 52 498T113 608T208 671T332 692Q401 692 457 672T552 609T613 500T634 341Q634 263 618 204T573 102L641 23Q637 13 621 -4T585
-38T543 -67T505 -80L434 3ZM241 196Q254 173 276 162T332 150Q366 150 387 161T422 196T440 255T445 341Q445 390 440 426T422 486T388 520T332 532Q298 532 276 521T242 486T224 427T219 341Q219 291 224 255T241 196Z" />
<glyph unicode="R" glyph-name="R" horiz-adv-x="617" d="M247 0Q237 -5 209 -7T151 -9Q123 -9 100 -7T70 0V682H292Q404 682 475 643T569 523Q578 491 578 453Q578 389 552 341T478 263L592 9Q588 4 578 1T553 -5T521 -8T486 -9Q457 -9 432 -7T395 1L314 214Q305
213 296 213T276 213H247V0ZM247 366H269Q306 366 329 372T366 390T384 417T389 453Q389 486 367 506T278 526H247V366Z" />
<glyph unicode="S" glyph-name="S" horiz-adv-x="529" d="M73 184Q107 172 140 164T208 152Q230 149 255 149Q282 149 299 161T316 196Q316 205 314 213T302 228T274 244T225 263L198 272Q152 287 121 305T70 347T42 402T33 475Q33 520 49 559T98 628T181 675T300
692Q345 692 395 683T487 657L444 504Q434 508 418 513T380 522T336 530T287 533Q262 533 245 531T216 524Q213 506 213 493T221 469T244 450T287 432L314 423Q409 391 452 343T496 220Q496 212 496 205T495 189Q485 90 424 40T252 -10Q226 -10 197 -7T139 2T84
14T38 29L73 184Z" />
<glyph unicode="T" glyph-name="T" horiz-adv-x="583" d="M380 0Q370 -5 342 -7T284 -9Q256 -9 233 -7T203 0V520H30V682H553V520H380V0Z" />
<glyph unicode="U" glyph-name="U" horiz-adv-x="663" d="M237 281Q237 213 256 182T331 150Q387 150 406 181T426 281V682Q436 687 464 689T522 691Q550 691 573 689T603 682V260Q603 123 533 57T331 -10Q197 -10 129 55T60 260V682Q70 687 98 689T156 691Q184
691 207 689T237 682V281Z" />
<glyph unicode="V" glyph-name="V" horiz-adv-x="624" d="M411 1Q400 -5 369 -8T304 -11Q272 -11 246 -8T211 1L5 672Q8 677 17 680T39 686T69 689T103 690Q133 690 160 688T198 682L278 366Q284 340 291 311T303 255Q309 224 315 194H319L331 254Q336 280 342
310T356 366L436 682Q447 685 472 687T526 690Q558 690 586 686T619 672L411 1Z" />
<glyph unicode="W" glyph-name="W" horiz-adv-x="954" d="M401 1Q390 -5 358 -8T289 -11Q255 -11 227 -8T191 1L20 672Q23 677 32 680T54 686T84 689T118 690Q148 690 175 688T213 682L258 433Q263 407 269 368T281 291Q288 248 295 201H299Q306 248 312 291Q317
328 323 367T336 433L391 680Q411 685 436 687T489 689Q513 689 534 687T573 680L628 433Q633 407 640 368T652 291Q658 247 665 201H669Q676 248 683 291Q689 328 695 367T706 433L751 682Q762 685 787 687T841 690Q873 690 901 686T934 672L761 1Q750 -5 718
-8T649 -11Q615 -11 587 -8T551 1L513 186Q508 212 502 253T490 337Q484 385 478 438H474Q468 386 462 338Q457 297 451 255T439 186L401 1Z" />
<glyph unicode="X" glyph-name="X" horiz-adv-x="590" d="M196 0Q185 -4 164 -6T117 -8Q99 -8 82 -7T50 -4T25 1T10 9L197 349L19 673Q27 682 61 686T133 690Q160 690 182 688T216 682L295 516L373 682Q384 686 405 688T452 690Q470 690 487 689T519 686T544 681T559
673L388 354L580 9Q572 0 538 -4T466 -8Q439 -8 417 -6T383 0L290 193L196 0Z" />
<glyph unicode="Y" glyph-name="Y" horiz-adv-x="554" d="M366 0Q356 -5 328 -7T270 -9Q242 -9 219 -7T189 0V237L5 672Q8 677 17 680T39 686T68 689T101 690Q130 690 156 688T193 682L243 533Q251 508 258 485T270 443Q275 421 280 401H284Q288 420 294 442Q299
461 306 484T321 533L371 682Q382 685 406 687T459 690Q491 690 517 686T549 672L366 244V0Z" />
<glyph unicode="Z" glyph-name="Z" horiz-adv-x="489" d="M35 0Q27 19 23 43Q19 63 17 89T17 144L256 525L33 518V681H457Q467 665 470 644T474 601Q474 587 473 576T471 556Q469 545 468 537L232 157L468 164V0H35Z" />
<glyph unicode="[" glyph-name="bracketleft" horiz-adv-x="389" d="M70 -259V867H399V726H239V-118H399V-259H70Z" />
<glyph unicode="\" glyph-name="backslash" horiz-adv-x="445" d="M495 -139Q473 -144 450 -147T404 -151Q364 -151 325 -139L-34 787Q-19 792 0 794T43 797Q66 797 89 795T135 787L495 -139Z" />
<glyph unicode="]" glyph-name="bracketright" horiz-adv-x="389" d="M-10 -259V-118H150V726H-10V867H319V-259H-10Z" />
<glyph unicode="^" glyph-name="asciicircum" horiz-adv-x="477" d="M30 263L151 437Q171 442 194 445T243 448Q286 448 327 437L447 263H296L239 344L180 263H30Z" />
<glyph unicode="_" glyph-name="underscore" horiz-adv-x="499" d="M7 -185V-41H492V-185H7Z" />
<glyph unicode="`" glyph-name="grave" horiz-adv-x="500" d="M243 563L99 737Q136 749 179 749Q204 749 229 746T278 737L400 563H243Z" />
<glyph unicode="a" glyph-name="a" horiz-adv-x="562" d="M343 66Q323 25 285 8T203 -10Q121 -10 76 33T30 155Q30 243 91 281T286 319Q294 319 302 319T319 318V372Q302 380 285 383T246 387Q207 387 170 377T101 347L35 474Q84 503 141 518T260 534Q312 534
354 522T425 492T471 456T487 427V128H547V19Q530 8 507 -1T448 -10Q413 -10 385 9T350 66H343ZM319 210Q287 211 259 210T200 204Q191 186 191 169Q191 149 205 134T250 119Q268 119 285 123T319 138V210Z" />
<glyph unicode="b" glyph-name="b" horiz-adv-x="610" d="M232 480Q254 504 287 519T371 534Q414 534 450 518T513 470T555 389T570 275Q570 200 551 146T496 58T407 7T286 -10Q216 -10 162 4T60 45V704Q66 708 79 711T107 716T140 719T175 720Q194 720 209 719T232
714V480ZM232 148Q243 140 260 136T297 132Q347 132 368 159T390 255Q390 323 369 348T306 373Q260 373 232 343V148Z" />
<glyph unicode="c" glyph-name="c" horiz-adv-x="469" d="M449 17Q435 8 414 3T371 -5T329 -9T299 -10Q165 -10 103 60T40 258Q40 395 107 464T308 534Q345 534 383 527T445 508L405 373Q382 381 364 385T322 390Q266 390 242 360T218 260Q218 192 246 164T338
136Q358 136 381 141T428 157L449 17Z" />
<glyph unicode="d" glyph-name="d" horiz-adv-x="625" d="M404 80Q383 39 345 15T244 -10Q199 -10 162 6T97 55T55 140T40 264Q40 333 56 383T103 467T176 517T271 534Q300 534 327 527T378 504V704Q384 708 397 711T425 716T458 719T493 720Q512 720 527 719T550
714V128H610V19Q593 8 570 -1T511 -10Q492 -10 475 -4T444 13T422 41T412 80H404ZM378 378Q364 385 345 388T310 392Q256 392 238 364T220 270Q220 202 236 174T296 146Q313 146 335 155T378 188V378Z" />
<glyph unicode="e" glyph-name="e" horiz-adv-x="544" d="M502 29Q486 19 464 12T418 0T368 -7T322 -10Q174 -10 107 57T40 262Q40 322 55 372T102 458T181 514T294 534Q355 534 396 516T462 467T497 393T508 300Q508 283 507 266T504 230Q460 217 401 213T286
208Q265 208 246 208T211 210Q221 163 250 147T334 131Q367 131 401 137T475 160L502 29ZM349 341Q349 377 327 392T272 408Q251 408 229 402Q221 385 215 365T207 319Q220 318 234 318T262 317Q288 317 311 318T349 323V341Z" />
<glyph unicode="f" glyph-name="f" horiz-adv-x="382" d="M247 0Q237 -5 210 -7T154 -9Q127 -9 105 -7T75 0V376Q53 381 34 391T3 415V493Q19 508 38 517T75 531Q75 577 84 612T115 673T177 711T275 724Q291 724 310 723T347 718T383 711T412 703L374 575Q357
580 337 583T297 587Q272 587 260 577T247 532V524H375V397Q348 389 314 385T247 379V0Z" />
<glyph unicode="g" glyph-name="g" horiz-adv-x="550" d="M354 135Q405 135 440 125T496 97T526 53T535 -5Q535 -52 511 -87T445 -146T349 -182T236 -194Q165 -194 123 -185T57 -159T27 -119T19 -70Q19 1 88 31Q65 44 54 67T43 116Q43 154 64 176T117 211Q79 229
58 261T36 353Q36 436 91 485T263 534Q286 534 307 532T349 524H533V407L476 415Q495 383 495 337Q495 260 439 218T265 175Q226 175 193 181Q190 174 190 169T189 158Q189 144 198 140T231 135H354ZM198 354Q198 328 213 314T264 299Q305 299 318 313T332 354Q332
380 317 394T266 409Q225 409 212 395T198 354ZM253 0Q196 0 160 6Q158 1 158 -4T157 -17Q157 -28 161 -36T176 -50T207 -58T259 -61Q296 -61 328 -57T376 -42Q385 0 329 0H253Z" />
<glyph unicode="h" glyph-name="h" horiz-adv-x="632" d="M232 0Q222 -5 195 -7T139 -9Q112 -9 90 -7T60 0V704Q66 708 79 711T107 716T140 719T175 720Q194 720 209 719T232 714V432Q254 479 295 506T396 534Q441 534 471 523T521 498T548 468T557 445V126H617V17Q567
-10 506 -10Q448 -10 417 19T385 108V338Q385 342 375 349T338 357Q302 357 281 343T249 305T235 254T232 197V0Z" />
<glyph unicode="i" glyph-name="i" horiz-adv-x="302" d="M237 0Q227 -5 200 -7T144 -9Q117 -9 95 -7T65 0V518Q85 526 117 529T179 533Q199 533 215 532T237 528V0ZM150 566Q101 566 78 590T55 656Q55 698 78 722T150 747Q199 747 222 723T246 656Q246 614 223
590T150 566Z" />
<glyph unicode="j" glyph-name="j" horiz-adv-x="302" d="M-51 -36Q-34 -41 -18 -44T18 -48Q41 -48 53 -38T65 7V518Q85 526 117 529T179 533Q199 533 215 532T237 528V-16Q237 -52 228 -83T195 -136T132 -172T31 -185Q-4 -185 -30 -181T-82 -168L-51 -36ZM150
566Q101 566 78 590T55 656Q55 698 78 722T150 747Q199 747 222 723T246 656Q246 614 223 590T150 566Z" />
<glyph unicode="k" glyph-name="k" horiz-adv-x="584" d="M232 0Q222 -5 195 -7T139 -9Q112 -9 90 -7T60 0V704Q66 708 79 711T107 716T140 719T175 720Q194 720 209 719T232 714V356L368 523Q385 528 414 531T474 534Q511 534 541 530T574 516L390 321L574 7Q571
2 561 -1T536 -6T505 -9T470 -10Q441 -10 416 -8T380 0L268 203L232 164V0Z" />
<glyph unicode="l" glyph-name="l" horiz-adv-x="302" d="M237 0Q227 -5 200 -7T144 -9Q117 -9 95 -7T65 0V704Q71 708 84 711T112 716T145 719T180 720Q199 720 214 719T237 714V0Z" />
<glyph unicode="m" glyph-name="m" horiz-adv-x="935" d="M232 0Q222 -5 195 -7T139 -9Q112 -9 90 -7T60 0V514Q76 522 107 526T167 531Q183 531 196 530T219 524Q219 504 218 483T216 444Q214 424 213 404H221Q240 463 282 498T387 534Q426 534 454 523T499 494T525
453T536 404H542Q561 463 601 498T701 534Q745 534 775 523T824 498T851 468T860 445V126H920V17Q870 -10 809 -10Q751 -10 720 19T688 108V338Q688 342 678 349T643 357Q610 357 591 343T562 305T549 254T546 197V0Q536 -5 509 -7T453 -9Q426 -9 404 -7T374 0V338Q374
342 364 349T329 357Q296 357 277 343T248 305T235 254T232 197V0Z" />
<glyph unicode="n" glyph-name="n" horiz-adv-x="632" d="M232 0Q222 -5 195 -7T139 -9Q112 -9 90 -7T60 0V514Q76 522 107 526T167 531Q183 531 196 530T219 524Q219 504 218 483T216 444Q214 424 213 404H221Q240 463 284 498T396 534Q441 534 471 523T521 498T548
468T557 445V126H617V17Q567 -10 506 -10Q448 -10 417 19T385 108V338Q385 342 375 349T338 357Q302 357 281 343T249 305T235 254T232 197V0Z" />
<glyph unicode="o" glyph-name="o" horiz-adv-x="592" d="M232 158Q240 142 255 134T296 126Q321 126 336 134T360 158T371 201T374 262Q374 298 371 323T360 365T337 390T296 398Q271 398 256 390T232 366T221 324T218 262Q218 227 221 201T232 158ZM110 54Q77
87 59 138T40 262Q40 334 58 385T110 470T191 518T296 534Q354 534 401 519T481 470T533 386T552 262Q552 190 534 139T482 54T401 6T296 -10Q238 -10 191 5T110 54Z" />
<glyph unicode="p" glyph-name="p" horiz-adv-x="610" d="M232 -175Q222 -180 195 -182T139 -184Q112 -184 90 -182T60 -175V514Q76 522 107 526T168 530Q203 530 221 524Q221 508 221 493T219 466Q218 452 217 438H227Q244 480 279 507T378 534Q469 534 519 469T570
260Q570 191 554 141T507 57T435 7T341 -10Q310 -10 282 -3T232 21V-175ZM232 148Q246 140 265 136T302 132Q354 132 372 160T390 254Q390 323 374 350T318 378Q298 378 273 365T232 315V148Z" />
<glyph unicode="q" glyph-name="q" horiz-adv-x="610" d="M550 -175Q540 -180 513 -182T457 -184Q430 -184 408 -182T378 -175V44Q356 20 323 5T239 -10Q196 -10 160 6T97 54T55 135T40 249Q40 324 59 378T114 466T203 517T324 534Q394 534 448 520T550 479V-175ZM378
376Q367 384 350 388T313 392Q263 392 242 365T220 269Q220 201 241 176T304 151Q349 151 378 180V376Z" />
<glyph unicode="r" glyph-name="r" horiz-adv-x="441" d="M232 0Q222 -5 195 -7T139 -9Q112 -9 90 -7T60 0V514Q76 522 106 526T166 530Q182 530 196 529T219 524Q219 504 218 483T216 444Q214 424 213 404H220Q228 428 241 451T274 493T319 523T377 534Q404 534
431 527L398 349Q391 350 385 350T373 350Q301 350 267 316T232 205V0Z" />
<glyph unicode="s" glyph-name="s" horiz-adv-x="484" d="M60 153Q102 142 149 136T241 129Q264 129 280 133T296 153Q296 165 279 173T209 189L178 194Q105 206 68 243T30 354Q30 393 41 426T79 483T147 520T250 534Q305 534 353 527T437 507L400 374Q391 377
375 381T339 388T297 394T252 397Q236 397 220 396T196 391Q194 374 197 365T208 351T229 342T262 335L293 330Q374 316 414 278T454 168Q454 72 395 31T215 -10Q195 -10 171 -8T123 -3T78 6T42 20L60 153Z" />
<glyph unicode="t" glyph-name="t" horiz-adv-x="426" d="M247 160Q247 155 257 146T294 137Q310 137 333 142T387 161L416 26Q383 6 342 -2T251 -10Q212 -10 180 0T125 26T88 62T75 102V379Q52 386 33 396T-1 417V497Q12 513 29 532T63 569Q80 587 96 602T124
625Q132 631 152 633T196 635Q210 635 222 635T244 633V524H392V397Q357 387 319 383T247 378V160Z" />
<glyph unicode="u" glyph-name="u" horiz-adv-x="617" d="M232 236Q232 198 244 183T294 167Q325 167 349 182T385 224V516Q405 524 437 527T499 531Q519 531 535 530T557 526V10Q541 2 510 -2T450 -7Q434 -7 421 -6T398 0Q398 43 401 70Q402 86 404 100H396Q374
46 333 18T235 -10Q185 -10 152 5T98 46T69 105T60 173V516Q80 524 112 527T174 531Q194 531 210 530T232 526V236Z" />
<glyph unicode="v" glyph-name="v" horiz-adv-x="572" d="M381 0Q371 -5 341 -8T279 -11Q248 -11 223 -9T191 0L0 516Q3 521 12 524T36 530T68 533T103 534Q133 534 158 531T194 523L254 316Q261 293 267 267T278 218Q283 192 288 166H292Q297 191 302 217Q307
240 313 266T326 316L386 523Q396 528 420 531T473 534Q490 534 506 533T536 530T559 525T572 516L381 0Z" />
<glyph unicode="w" glyph-name="w" horiz-adv-x="889" d="M371 0Q361 -5 331 -8T269 -11Q238 -11 213 -9T181 0L10 516Q13 521 22 524T46 530T78 533T113 534Q143 534 168 531T204 523L244 346Q249 323 254 294T265 238Q270 207 275 176H279Q285 206 291 237Q296
263 302 292T316 346L366 523Q380 529 404 532T454 536Q477 536 498 533T531 523L581 346Q587 323 594 294T606 238Q612 207 618 176H622Q627 206 632 237Q637 263 642 292T653 346L693 523Q703 528 727 531T780 534Q797 534 813 533T843 530T866 525T879 516L708
0Q698 -5 668 -8T606 -11Q575 -11 550 -9T518 0L480 140Q473 163 468 192T458 248Q453 279 449 310H445Q439 280 433 249Q428 223 421 193T408 140L371 0Z" />
<glyph unicode="x" glyph-name="x" horiz-adv-x="554" d="M194 0Q183 -5 160 -7T109 -10Q76 -10 47 -6T10 7L180 266L15 517Q18 521 28 524T52 530T84 533T119 534Q148 534 173 532T209 524L277 403L345 524Q356 529 379 531T430 534Q463 534 492 530T529 517L370
271L544 7Q541 2 531 -1T506 -6T475 -9T440 -10Q411 -10 386 -8T350 0L273 135L194 0Z" />
<glyph unicode="y" glyph-name="y" horiz-adv-x="572" d="M81 -36Q98 -41 114 -44T150 -48Q166 -48 181 -38T196 -4L0 516Q3 521 12 524T36 530T68 533T103 534Q133 534 158 531T194 523L254 316Q261 293 266 268T277 221Q282 195 287 171H291Q296 195 302 220Q307
241 313 266T326 316L386 523Q396 528 420 531T473 534Q490 534 506 533T536 530T559 525T572 516L375 -18Q362 -52 351 -82T318 -135T260 -171T163 -185Q128 -185 102 -181T50 -168L81 -36Z" />
<glyph unicode="z" glyph-name="z" horiz-adv-x="465" d="M38 0Q30 15 25 33Q20 48 17 68T17 111L217 380L32 375V524H434Q443 512 446 496T449 463Q449 452 448 444T446 428Q445 420 444 413L246 144L444 149V0H38Z" />
<glyph unicode="{" glyph-name="braceleft" horiz-adv-x="404" d="M342 -248Q283 -248 238 -234T161 -194T113 -133T96 -56Q96 -8 102 27T116 90T130 142T137 192Q137 218 122 228T77 239H30V380H83Q109 381 123 392T137 427Q137 453 131 477T117 529T103 592T96
675Q96 716 112 751T160 812T237 852T342 867H404V726H343Q296 726 278 707T260 658Q260 626 267 600T282 548T298 494T305 428Q305 388 286 358T229 310Q267 292 286 262T305 191Q305 154 298 126T283 72T267 20T260 -39Q260 -68 278 -87T343 -107H404V-248H342Z"
/>
<glyph unicode="|" glyph-name="bar" horiz-adv-x="309" d="M239 -212Q219 -218 198 -221T155 -224Q132 -224 110 -221T70 -212V890Q90 896 111 899T154 902Q177 902 199 899T239 890V-212Z" />
<glyph unicode="}" glyph-name="braceright" horiz-adv-x="404" d="M0 -248V-107H61Q108 -107 126 -88T144 -39Q144 -7 137 19T122 71T106 125T99 191Q99 231 118 261T175 310Q137 327 118 357T99 428Q99 465 106 493T121 548T137 600T144 658Q144 687 126 706T61
726H0V867H62Q121 867 166 853T243 813T291 752T308 675Q308 627 302 592T288 529T274 477T267 427Q267 403 281 392T321 380H374V239H327Q298 239 283 229T267 192Q267 166 273 143T287 91T301 27T308 -56Q308 -97 292 -132T244 -193T167 -233T62 -248H0Z" />
<glyph unicode="~" glyph-name="asciitilde" horiz-adv-x="451" d="M31 333Q32 404 64 436T143 469Q169 469 187 460T225 436L266 406Q281 394 292 394Q312 394 313 423L317 464Q331 467 344 468T368 469Q379 469 389 468T406 466Q414 465 421 464L420 398Q419
326 387 294T307 261Q282 261 263 270T226 294L184 325Q176 330 171 333T158 336Q150 336 144 330T137 307L134 265Q120 261 106 260T81 259Q57 259 44 262Q36 263 30 265L31 333Z" />
</font>
</defs>
</svg>
